<?xml version="1.0" encoding="UTF-8" standalone="no"?>
<!DOCTYPE svg PUBLIC "-//W3C//DTD SVG 1.1//EN" "http://www.w3.org/Graphics/SVG/1.1/DTD/svg11.dtd">
<svg width="702" height="242" viewBox="0 0 351 121" version="1.1" xmlns="http://www.w3.org/2000/svg" stroke-linecap="round" stroke-linejoin="round" style="background-color:white">
    <g fill="none" stroke="#000" stroke-width="0.8">
        <path d="M257.816,95.534L298.5,95.534L298.5,58.5"/>
        <path d="M257.816,86.5L266.5,86.5L266.5,58.5"/>
        <path d="M233.929,81.5L247.5,81.5L247.5,58.5"/>
        <path d="M242.397,90.5L233.929,90.5"/>
        <path d="M218.397,85.5L205.338,85.5"/>
        <path d="M205.338,76.5L217.5,76.5L217.5,58.5"/>
        <rect x="50.5" y="42.5" width="256" height="16"/>
        <path d="M146.5,42.5L146.5,58.5"/>
        <path d="M66.5,42.5L66.5,58.5"/>
        <path d="M162.5,42.5L162.5,58.5"/>
        <path d="M82.5,42.5L82.5,58.5"/>
        <path d="M178.5,42.5L178.5,58.5"/>
        <path d="M98.5,42.5L98.5,58.5"/>
        <path d="M194.5,42.5L194.5,58.5"/>
        <path d="M114.5,42.5L114.5,58.5"/>
        <path d="M210.5,42.5L210.5,58.5"/>
        <path d="M130.5,42.5L130.5,58.5"/>
        <path d="M226.5,42.5L226.5,58.5"/>
        <path d="M242.5,42.5L242.5,58.5"/>
        <path d="M258.5,42.5L258.5,58.5"/>
        <path d="M274.5,42.5L274.5,58.5"/>
        <path d="M290.5,42.5L290.5,58.5"/>
        <path d="M203.981,89.497C197.834,89.481 192.439,86.031 189.396,80.855C192.402,75.74 197.705,72.312 203.76,72.214C202.124,74.667 201.176,77.576 201.176,80.695C201.176,83.951 202.21,86.979 203.981,89.497Z"/>
        <path d="M206.83,89.497C205.058,86.979 204.025,83.951 204.025,80.695C204.025,77.576 204.973,74.667 206.609,72.214"/>
        <path d="M232.981,94.497C226.834,94.481 221.439,91.031 218.396,85.855C221.402,80.74 226.705,77.312 232.76,77.214C231.124,79.667 230.176,82.576 230.176,85.695C230.176,88.951 231.21,91.979 232.981,94.497Z"/>
        <path d="M235.83,94.497C234.058,91.979 233.025,88.951 233.025,85.695C233.025,82.576 233.973,79.667 235.609,77.214"/>
        <path d="M256.981,99.497C250.834,99.481 245.439,96.031 242.396,90.855C245.402,85.74 250.705,82.312 256.76,82.214C255.124,84.667 254.176,87.576 254.176,90.695C254.176,93.951 255.21,96.979 256.981,99.497Z"/>
        <path d="M259.83,99.497C258.058,96.979 257.025,93.951 257.025,90.695C257.025,87.576 257.973,84.667 259.609,82.214"/>
        <path d="M50.5,51.5L40.5,51.5L40.5,80.5L189,80.5"/>
    </g>
    <g fill="none" stroke="#999" stroke-width="0.8">
        <circle cx="170.5" cy="50.5" r="4"/>
        <circle cx="234.5" cy="50.5" r="4"/>
        <circle cx="266.5" cy="50.5" r="4"/>
        <circle cx="154.5" cy="50.5" r="4"/>
        <circle cx="106.5" cy="50.5" r="4"/>
        <circle cx="30.5" cy="69.606" r="4"/>
        <circle cx="74.5" cy="50.5" r="4"/>
        <circle cx="250.5" cy="50.5" r="4"/>
        <circle cx="282.5" cy="50.5" r="4"/>
        <path d="M138.5,46.5L138.5,54.5"/>
        <path d="M90.5,46.5L90.5,54.5"/>
        <path d="M58.5,46.5L58.5,54.5"/>
        <path d="M202.5,46.5L202.5,54.5"/>
        <path d="M122.5,46.5L122.5,54.5"/>
        <path d="M186.5,46.5L186.5,54.5"/>
        <path d="M218.5,46.5L218.5,54.5"/>
        <path d="M298.5,46.5L298.5,54.5"/>
    </g>
    <g font-family="'ArialMT', 'Arial', sans-serif" font-size="14">
        <text x="55.13px" y="39.028px">1</text>
        <text x="211.756px" y="39.028px">11</text>
        <text x="241.237px" y="39.028px">13</text>
        <text x="258.8px" y="39.028px">14</text>
        <text x="290.273px" y="39.028px">16</text>
    </g>
</svg>